<svg width="24" height="24" viewBox="0 0 24 24" fill="none" xmlns="http://www.w3.org/2000/svg">
<g clip-path="url(#clip0)">
<path d="M21.75 24C21.55 24 21.35 23.9 21.2 23.8L12 14.5L2.8 23.8C2.6 24 2.25 24.1 2 23.95C1.7 23.85 1.5 23.55 1.5 23.25V0.75C1.5 0.35 1.85 0 2.25 0H21.75C22.15 0 22.5 0.35 22.5 0.75V23.25C22.5 23.55 22.3 23.85 22.05 23.95C21.95 24 21.85 24 21.75 24ZM12 13C12.4 13 12.8 13.15 13.1 13.45L21 21.45V1.5H3V21.45L10.9 13.45C11.2 13.15 11.6 13 12 13Z" fill="#262626"/>
</g>
<defs>
<clipPath id="clip0">
<rect width="24" height="24" fill="white"/>
</clipPath>
</defs>
</svg>
