<svg width="24" height="24" viewBox="0 0 24 24" fill="none" xmlns="http://www.w3.org/2000/svg">
<path fill-rule="evenodd" clip-rule="evenodd" d="M19.25 23H4.75C2.25 23 0.25 21 0.25 18.5V8.5C0.25 6 2.25 4 4.75 4H5.3C5.85 4 6.4 3.7 6.65 3.15L6.9 2.65C7.4 1.65 8.45 1 9.6 1H14.4C15.55 1 16.6 1.65 17.1 2.65L17.35 3.15C17.6 3.65 18.1 4 18.7 4H19.25C21.75 4 23.75 6 23.75 8.5V18.5C23.75 21 21.75 23 19.25 23V23ZM22.25 8.5C22.25 6.85 20.9 5.5 19.25 5.5H18.7C17.55 5.5 16.5 4.85 16 3.85L15.75 3.35C15.5 2.8 14.95 2.5 14.4 2.5H9.6C9.05 2.5 8.5 2.8 8.25 3.35L8 3.85C7.5 4.85 6.45 5.5 5.3 5.5H4.75C3.1 5.5 1.75 6.85 1.75 8.5V18.5C1.75 20.15 3.1 21.5 4.75 21.5H19.25C20.9 21.5 22.25 20.15 22.25 18.5V8.5ZM12 19C8.8 19 6.25 16.45 6.25 13.25C6.25 10.05 8.8 7.5 12 7.5C15.2 7.5 17.75 10.05 17.75 13.25C17.75 16.45 15.2 19 12 19ZM12 9C9.65 9 7.75 10.9 7.75 13.25C7.75 15.6 9.65 17.5 12 17.5C14.35 17.5 16.25 15.6 16.25 13.25C16.25 10.9 14.35 9 12 9Z" fill="#262626"/>
</svg>
