<svg width="18" height="18" viewBox="0 0 18 18" fill="none" xmlns="http://www.w3.org/2000/svg">
    <path fill-rule="evenodd" clip-rule="evenodd" d="M15.675 3.675L10.3125 9L15.6375 14.325C15.8625 14.55 15.8625 14.8875 15.6375 15.1125L15.1125 15.6375C14.8875 15.8625 14.55 15.8625 14.325 15.6375L9 10.3125L3.675 15.675C3.45 15.9 3.1125 15.9 2.8875 15.675L2.3625 15.15C2.1375 14.925 2.1375 14.5875 2.3625 14.3625L7.6875 9L2.325 3.675C2.1 3.45 2.1 3.1125 2.325 2.8875L2.85 2.3625C3.075 2.1375 3.4125 2.1375 3.6375 2.3625L9 7.6875L14.3625 2.325C14.5875 2.1 14.925 2.1 15.15 2.325L15.675 2.85C15.9 3.075 15.9 3.45 15.675 3.675Z" fill="#262626"/>
</svg>