<svg width="24" height="24" viewBox="0 0 24 24" fill="none" xmlns="http://www.w3.org/2000/svg">
    <path d="M12 24C5.4 24 0 18.6 0 12C0 5.4 5.4 0 12 0C18.6 0 24 5.4 24 12C24 18.6 18.6 24 12 24ZM12 1.5C6.2 1.5 1.5 6.2 1.5 12C1.5 17.8 6.2 22.5 12 22.5C17.8 22.5 22.5 17.8 22.5 12C22.5 6.2 17.8 1.5 12 1.5Z" fill="#262626"/>
    <path d="M17.45 12C17.45 11.3 16.9 10.75 16.2 10.75C15.5 10.75 14.95 11.3 14.95 12C14.95 12.7 15.5 13.25 16.2 13.25C16.9 13.25 17.45 12.7 17.45 12ZM6.55 12C6.55 11.3 7.1 10.75 7.8 10.75C8.5 10.75 9.05 11.3 9.05 12C9.05 12.7 8.5 13.25 7.8 13.25C7.1 13.25 6.55 12.7 6.55 12ZM12 18.65C9.4 18.65 8 16.9 7.9 16.8C7.65 16.5 7.7 16 8 15.75C8.3 15.5 8.8 15.55 9.05 15.85C9.1 15.9 10.1 17.1 11.95 17.1C13.8 17.1 14.85 15.85 14.85 15.85C15.1 15.55 15.6 15.5 15.9 15.75C16.2 16 16.25 16.5 16 16.8C16 16.9 14.6 18.65 12 18.65V18.65Z" fill="#262626"/>
</svg>