<svg width="22" height="22" viewBox="0 0 22 22" fill="none" xmlns="http://www.w3.org/2000/svg">
<path fill-rule="evenodd" clip-rule="evenodd" d="M11 0C4.95 0 0 4.95 0 11C0 17.05 4.95 22 11 22C17.05 22 22 17.05 22 11C22 4.95 17.05 0 11 0ZM11 20.625C5.68333 20.625 1.375 16.3167 1.375 11C1.375 5.68333 5.68333 1.375 11 1.375C16.3167 1.375 20.625 5.68333 20.625 11C20.625 16.3167 16.3167 20.625 11 20.625ZM15.675 5.40833L8.89167 8.61667C8.75417 8.6625 8.61667 8.8 8.57083 8.9375L5.3625 15.7208C5.225 15.9958 5.27083 16.3167 5.5 16.5C5.6375 16.6375 5.82083 16.6833 6.00417 16.6833C6.09583 16.6833 6.1875 16.6833 6.27917 16.6375L13.0625 13.4292C13.2 13.3833 13.3375 13.2458 13.3833 13.1083L16.5917 6.325C16.7292 6.05 16.6833 5.72917 16.4542 5.54583C16.2708 5.31667 15.95 5.27083 15.675 5.40833ZM12.2833 12.2833L9.7625 9.7625L14.575 7.47083L12.2833 12.2833Z" fill="#262626"/>
</svg>
