<svg width="22" height="22" viewBox="0 0 22 22" fill="none" xmlns="http://www.w3.org/2000/svg">
<g clip-path="url(#clip0)">
<path d="M20.7625 22H13.75C13.3833 22 13.0625 21.6792 13.0625 21.3125V15.675C13.0625 14.4833 12.1458 13.5667 10.9542 13.5667C9.7625 13.5667 8.84584 14.4833 8.84584 15.675V21.3125C8.84584 21.6792 8.525 22 8.15834 22H1.14584C0.779169 22 0.458336 21.6792 0.458336 21.3125V10.5417C0.458336 10.3583 0.550003 10.175 0.641669 10.0375L10.4958 0.183331C10.7708 -0.0916687 11.1833 -0.0916687 11.4583 0.183331L21.3125 10.0375C21.4958 10.2208 21.5875 10.5417 21.45 10.7708C21.45 10.8167 21.4042 10.8167 21.4042 10.8625V21.3125C21.45 21.6792 21.1292 22 20.7625 22ZM14.4375 20.625H20.075V10.725L11 1.65L1.83334 10.8167V20.625H7.47084V15.675C7.47084 13.7042 8.98334 12.1917 10.9542 12.1917C12.925 12.1917 14.4375 13.7042 14.4375 15.675V20.625Z" fill="#262626"/>
</g>
<defs>
<clipPath id="clip0">
<rect width="22" height="22" fill="white"/>
</clipPath>
</defs>
</svg>
