<svg width="22" height="22" viewBox="0 0 22 22" fill="none" xmlns="http://www.w3.org/2000/svg">
<g clip-path="url(#clip0)">
<path d="M20.8542 22H13.7958C13.4292 22 13.1083 21.6792 13.1083 21.3125V15.675C13.1083 14.4833 12.1458 13.5667 11 13.5667C9.85416 13.5667 8.89166 14.5292 8.89166 15.675V21.3125C8.89166 21.6792 8.57083 22 8.20416 22H1.14583C0.779162 22 0.458328 21.6792 0.458328 21.3125V10.5417C0.458328 10.3583 0.549995 10.175 0.641662 10.0375L10.4958 0.183331C10.7708 -0.0916687 11.2292 -0.0916687 11.4583 0.183331L21.3125 10.0375C21.45 10.175 21.4958 10.3583 21.4958 10.5417V21.3125C21.5417 21.6792 21.2208 22 20.8542 22Z" fill="#262626"/>
</g>
<defs>
<clipPath id="clip0">
<rect width="22" height="22" fill="white"/>
</clipPath>
</defs>
</svg>
