<svg width="24" height="24" viewBox="0 0 24 24" fill="none" xmlns="http://www.w3.org/2000/svg">
    <path d="M12 24C5.4 24 0 18.6 0 12C0 5.4 5.4 0 12 0C18.6 0 24 5.4 24 12C24 18.6 18.6 24 12 24ZM12 1.5C6.2 1.5 1.5 6.2 1.5 12C1.5 17.8 6.2 22.5 12 22.5C17.8 22.5 22.5 17.8 22.5 12C22.5 6.2 17.8 1.5 12 1.5Z" fill="#262626"/>
    <path d="M12 8.70001C12.718 8.70001 13.3 8.11798 13.3 7.40001C13.3 6.68204 12.718 6.10001 12 6.10001C11.282 6.10001 10.7 6.68204 10.7 7.40001C10.7 8.11798 11.282 8.70001 12 8.70001Z" fill="#262626"/>
    <path d="M13.55 17.85H10.45C10.05 17.85 9.7 17.5 9.7 17.1C9.7 16.7 10.05 16.35 10.45 16.35H13.55C13.95 16.35 14.3 16.7 14.3 17.1C14.3 17.5 13.95 17.85 13.55 17.85Z" fill="#262626"/>
    <path d="M12 17.85C11.6 17.85 11.25 17.5 11.25 17.1V11.75H10.45C10.05 11.75 9.7 11.4 9.7 11C9.7 10.6 10.05 10.25 10.45 10.25H12C12.4 10.25 12.75 10.6 12.75 11V17.1C12.75 17.5 12.4 17.85 12 17.85Z" fill="#262626"/>
</svg>