<svg width="22" height="22" viewBox="0 0 22 22" fill="none" xmlns="http://www.w3.org/2000/svg">
<path d="M15.8583 1.42084C13.7958 1.42084 12.2375 2.24584 11 3.9875C9.7625 2.29167 8.20417 1.46667 6.14167 1.46667C2.75 1.42084 0 4.4 0 8.06667C0 11.4125 2.475 13.5667 4.85833 15.6292C5.13333 15.8583 5.45417 16.1333 5.72917 16.4083L6.78333 17.325C8.8 19.1125 9.80833 20.0292 10.2667 20.3042C10.4958 20.4417 10.7708 20.5333 11 20.5333C11.2292 20.5333 11.5042 20.4417 11.7333 20.3042C12.1917 20.0292 13.0167 19.2958 15.3083 17.1875L16.225 16.3625C16.5458 16.0875 16.8208 15.8125 17.1417 15.5833C19.5708 13.5667 22 11.4583 22 8.06667C22 4.4 19.25 1.42084 15.8583 1.42084Z" fill="#262626"/>
</svg>
