<svg width="22" height="22" viewBox="0 0 22 22" fill="none" xmlns="http://www.w3.org/2000/svg">
<g clip-path="url(#clip0)">
<path d="M21.9083 1.74167C21.7708 1.5125 21.5417 1.375 21.3125 1.375H0.6875C0.4125 1.42083 0.1375 1.60417 0.0458333 1.83333C-0.0458333 2.0625 0 2.38333 0.183333 2.6125L7.47083 9.7625L9.99167 20.1208C10.0375 20.3958 10.2667 20.5792 10.5417 20.625H10.6333C10.8625 20.625 11.0917 20.4875 11.2292 20.3042L21.8625 2.42917C22.0458 2.24583 22.0458 1.97083 21.9083 1.74167ZM2.38333 2.79583H18.6542L8.25 8.57083L2.38333 2.79583ZM10.9542 18.1958L8.9375 9.7625L19.4333 3.94167L10.9542 18.1958Z" fill="#262626"/>
</g>
<defs>
<clipPath id="clip0">
<rect width="22" height="22" fill="white"/>
</clipPath>
</defs>
</svg>
