<svg width="22" height="22" viewBox="0 0 22 22" fill="none" xmlns="http://www.w3.org/2000/svg">
<g clip-path="url(#clip0)">
<path d="M21.9083 1.74167C21.7708 1.5125 21.5417 1.375 21.3125 1.375H0.6875C0.4125 1.42083 0.1375 1.60417 0.0458333 1.83333C-0.0458333 2.0625 0 2.38333 0.183333 2.6125L6.23333 8.57083C6.4625 8.75417 6.7375 8.84583 7.0125 8.70833L14.6208 5.04167C14.9417 4.90417 15.3542 4.99583 15.5375 5.27083C15.7208 5.59167 15.6292 6.00417 15.3083 6.1875L8.15833 10.725C7.92917 10.8625 7.79167 11.1833 7.8375 11.4583L9.94583 20.1667C9.99167 20.4417 10.2208 20.625 10.4958 20.6708H10.5875C10.8167 20.6708 11.0458 20.5333 11.1833 20.35L21.8167 2.475C22.0458 2.24583 22.0458 1.97083 21.9083 1.74167Z" fill="#262626"/>
</g>
<defs>
<clipPath id="clip0">
<rect width="22" height="22" fill="white"/>
</clipPath>
</defs>
</svg>
