<svg width="24" height="24" viewBox="0 0 24 24" fill="none" xmlns="http://www.w3.org/2000/svg">
    <g clip-path="url(#clip0)">
        <path d="M18.3818 24.0654H4.63636C4.02568 24.072 3.41984 23.9566 2.85436 23.7259C2.28888 23.4952 1.77516 23.154 1.34331 22.7221C0.911472 22.2903 0.570208 21.7766 0.339536 21.2111C0.108863 20.6456 -0.00657244 20.0398 -1.47563e-06 19.4291V5.68363C-0.00657244 5.07295 0.108863 4.4671 0.339536 3.90162C0.570208 3.33614 0.911472 2.82242 1.34331 2.39058C1.77516 1.95874 2.28888 1.61747 2.85436 1.3868C3.41984 1.15613 4.02568 1.04069 4.63636 1.04726H12.5455C12.7624 1.04726 12.9706 1.13346 13.124 1.2869C13.2774 1.44034 13.3636 1.64845 13.3636 1.86544C13.3636 2.08244 13.2774 2.29055 13.124 2.44399C12.9706 2.59743 12.7624 2.68363 12.5455 2.68363H4.63636C4.24138 2.67999 3.84964 2.7551 3.48402 2.90457C3.1184 3.05405 2.78623 3.27489 2.50693 3.55419C2.22762 3.8335 2.00678 4.16566 1.85731 4.53128C1.70783 4.8969 1.63272 5.28865 1.63636 5.68363V19.4291C1.63272 19.8241 1.70783 20.2158 1.85731 20.5814C2.00678 20.947 2.22762 21.2792 2.50693 21.5585C2.78623 21.8378 3.1184 22.0587 3.48402 22.2081C3.84964 22.3576 4.24138 22.4327 4.63636 22.4291H18.3818C18.7768 22.4327 19.1685 22.3576 19.5342 22.2081C19.8998 22.0587 20.2319 21.8378 20.5113 21.5585C20.7906 21.2792 21.0114 20.947 21.1609 20.5814C21.3103 20.2158 21.3855 19.8241 21.3818 19.4291V11.52C21.3818 11.303 21.468 11.0949 21.6215 10.9414C21.7749 10.788 21.983 10.7018 22.2 10.7018C22.417 10.7018 22.6251 10.788 22.7785 10.9414C22.932 11.0949 23.0182 11.303 23.0182 11.52V19.4291C23.0248 20.0398 22.9093 20.6456 22.6786 21.2111C22.448 21.7766 22.1067 22.2903 21.6749 22.7221C21.243 23.154 20.7293 23.4952 20.1638 23.7259C19.5983 23.9566 18.9925 24.072 18.3818 24.0654V24.0654Z" fill="#262626"/>
        <path d="M9.54545 18.9927H5.89091C5.67391 18.9927 5.46581 18.9065 5.31237 18.7531C5.15893 18.5997 5.07273 18.3915 5.07273 18.1746V14.52C5.07292 14.3031 5.15924 14.0951 5.31273 13.9418L18.6 0.687278C19.0535 0.244173 19.6623 -0.00390625 20.2964 -0.00390625C20.9304 -0.00390625 21.5392 0.244173 21.9927 0.687278L23.3564 2.05091C23.7995 2.5044 24.0475 3.11325 24.0475 3.74728C24.0475 4.3813 23.7995 4.99016 23.3564 5.44364L10.1018 18.7527C9.95391 18.901 9.75479 18.9869 9.54545 18.9927V18.9927ZM6.70909 17.3564H9.20727L22.2218 4.26546C22.3619 4.1184 22.44 3.92309 22.44 3.72001C22.44 3.51692 22.3619 3.32161 22.2218 3.17455L20.8582 1.81091C20.7111 1.67085 20.5158 1.59273 20.3127 1.59273C20.1096 1.59273 19.9143 1.67085 19.7673 1.81091L6.67636 14.8255L6.70909 17.3564Z" fill="#262626"/>
        <path d="M20.8364 7.64726C20.7253 7.64977 20.615 7.62981 20.5118 7.58856C20.4087 7.54732 20.315 7.48565 20.2364 7.40726L16.6582 3.82908C16.5137 3.67398 16.435 3.46884 16.4387 3.25687C16.4425 3.04491 16.5283 2.84267 16.6782 2.69277C16.8281 2.54286 17.0304 2.45699 17.2423 2.45325C17.4543 2.44951 17.6594 2.52819 17.8145 2.67272L21.4145 6.27272C21.4911 6.34831 21.5518 6.43834 21.5933 6.53759C21.6348 6.63684 21.6561 6.74333 21.6561 6.8509C21.6561 6.95846 21.6348 7.06496 21.5933 7.16421C21.5518 7.26345 21.4911 7.35349 21.4145 7.42908C21.2574 7.57409 21.0501 7.65233 20.8364 7.64726V7.64726Z" fill="#262626"/>
    </g>
    <defs>
        <clipPath id="clip0">
            <rect width="24" height="24" fill="white"/>
        </clipPath>
    </defs>
</svg>