<svg width="24" height="24" viewBox="0 0 24 24" fill="none" xmlns="http://www.w3.org/2000/svg">
    <path d="M19.25 0H4.75C2.15 0 0 2.15 0 4.75V19.25C0 21.85 2.15 24 4.75 24H19.25C21.85 24 24 21.85 24 19.25V4.75C24 2.15 21.85 0 19.25 0ZM22.5 19.25C22.5 21.05 21.05 22.5 19.25 22.5H4.75C3.1 22.5 1.75 21.25 1.55 19.7L5.7 15.55C5.75 15.5 5.85 15.45 5.9 15.45C5.95 15.45 6 15.45 6.1 15.55L9.25 18.7C9.95 19.4 11.05 19.4 11.75 18.7L17.95 12.5C18.05 12.4 18.25 12.4 18.35 12.5L22.5 16.65V19.25ZM22.5 14.55L19.4 11.45C18.75 10.8 17.55 10.8 16.9 11.45L10.65 17.65C10.6 17.7 10.5 17.75 10.45 17.75C10.4 17.75 10.35 17.75 10.25 17.65L7.1 14.5C6.45 13.85 5.25 13.85 4.6 14.5L1.5 17.6V4.75C1.5 2.95 2.95 1.5 4.75 1.5H19.25C21.05 1.5 22.5 2.95 22.5 4.75V14.55ZM5.9 4.1C4.95 4.1 4.15 4.9 4.15 5.85C4.15 6.8 4.95 7.6 5.9 7.6C6.85 7.6 7.65 6.8 7.65 5.85C7.65 4.9 6.85 4.1 5.9 4.1Z" fill="#262626"/>
</svg>