<svg width="24" height="24" viewBox="0 0 24 24" fill="none" xmlns="http://www.w3.org/2000/svg">
<path fill-rule="evenodd" clip-rule="evenodd" d="M22.5 0.75H1.5C1.1 0.75 0.75 1.1 0.75 1.5V22.5C0.75 22.9 1.1 23.25 1.5 23.25H22.5C22.9 23.25 23.25 22.9 23.25 22.5V1.5C23.25 1.1 22.9 0.75 22.5 0.75ZM2.25 2.25H7.75V7.75H2.25V2.25ZM2.25 9.25H7.75V14.75H2.25V9.25ZM7.75 21.75H2.25V16.25H7.75V21.75ZM14.75 21.75H9.25V16.25H14.75V21.75ZM14.75 14.75H9.25V9.25H14.75V14.75ZM14.75 7.75H9.25V2.25H14.75V7.75ZM21.75 21.75H16.25V16.25H21.75V21.75ZM21.75 14.75H16.25V9.25H21.75V14.75ZM21.75 7.75H16.25V2.25H21.75V7.75Z" fill="#262626"/>
</svg>
