<svg width="24" height="24" viewBox="0 0 24 24" fill="none" xmlns="http://www.w3.org/2000/svg">
<path d="M6.5 14C7.32843 14 8 13.3284 8 12.5C8 11.6716 7.32843 11 6.5 11C5.67157 11 5 11.6716 5 12.5C5 13.3284 5.67157 14 6.5 14Z" fill="#262626"/>
<path d="M11.8333 14C12.6618 14 13.3333 13.3284 13.3333 12.5C13.3333 11.6716 12.6618 11 11.8333 11C11.0049 11 10.3333 11.6716 10.3333 12.5C10.3333 13.3284 11.0049 14 11.8333 14Z" fill="#262626"/>
<path d="M17.1667 14C17.9951 14 18.6667 13.3284 18.6667 12.5C18.6667 11.6716 17.9951 11 17.1667 11C16.3382 11 15.6667 11.6716 15.6667 12.5C15.6667 13.3284 16.3382 14 17.1667 14Z" fill="#262626"/>
</svg>
