<svg width="24" height="24" viewBox="0 0 24 24" fill="none" xmlns="http://www.w3.org/2000/svg">
<g clip-path="url(#clip0)">
<path d="M10 20C4.5 20 0 15.5 0 10C0 4.5 4.5 0 10 0C15.5 0 20 4.5 20 10C20 15.5 15.5 20 10 20ZM10 1.5C5.3 1.5 1.5 5.3 1.5 10C1.5 14.7 5.3 18.5 10 18.5C14.7 18.5 18.5 14.7 18.5 10C18.5 5.3 14.7 1.5 10 1.5Z" fill="#262626"/>
<path d="M23.3 24.05C23.1 24.05 22.9 24 22.75 23.85L16 17.1C15.7 16.8 15.7 16.35 16 16.05C16.3 15.75 16.75 15.75 17.05 16.05L23.8 22.8C24.1 23.1 24.1 23.55 23.8 23.85C23.7 24 23.5 24.05 23.3 24.05Z" fill="#262626"/>
</g>
<defs>
<clipPath id="clip0">
<rect width="24" height="24" fill="white"/>
</clipPath>
</defs>
</svg>
