<svg width="24" height="24" viewBox="0 0 24 24" fill="none" xmlns="http://www.w3.org/2000/svg">
    <path d="M20.75 2.75001H15.2C14.95 2.75001 14.7 2.65001 14.5 2.45001L12.5 0.450006C12.2 0.150006 11.75 0.150006 11.45 0.450006L9.45 2.45001C9.25 2.65001 9 2.75001 8.75 2.75001H3.25C1.6 2.75001 0.25 4.10001 0.25 5.75001V20.75C0.25 22.4 1.6 23.75 3.25 23.75H20.75C22.4 23.75 23.75 22.4 23.75 20.75V5.75001C23.75 4.10001 22.4 2.75001 20.75 2.75001ZM6.05 22.25C5.75 22.25 5.5 21.95 5.55 21.65C5.9 20.05 7.3 18.85 8.95 18.85H14.95C16.65 18.85 18.05 20.05 18.35 21.65C18.4 21.95 18.15 22.25 17.85 22.25H6.05V22.25ZM22.25 20.75C22.25 21.6 21.6 22.25 20.75 22.25H20.45C20.2 22.25 20 22.05 19.95 21.8C19.65 19.3 17.55 17.35 15 17.35H9C6.45 17.35 4.3 19.3 4.05 21.8C4 22.05 3.8 22.25 3.55 22.25H3.25C2.4 22.25 1.75 21.6 1.75 20.75V5.75001C1.75 4.90001 2.4 4.25001 3.25 4.25001H8.8C9.45 4.25001 10.1 4.00001 10.55 3.50001L12 2.05001L13.45 3.50001C13.9 3.95001 14.55 4.25001 15.2 4.25001H20.75C21.6 4.25001 22.25 4.90001 22.25 5.75001V20.75ZM12 6.25001C9.35 6.25001 7.2 8.40001 7.2 11.05C7.2 13.7 9.35 15.85 12 15.85C14.65 15.85 16.8 13.7 16.8 11.05C16.8 8.40001 14.65 6.25001 12 6.25001V6.25001ZM12 14.3C10.2 14.3 8.7 12.85 8.7 11C8.7 9.20001 10.15 7.70001 12 7.70001C13.85 7.70001 15.3 9.15001 15.3 11C15.3 12.8 13.8 14.3 12 14.3Z" fill="#262626"/>
</svg>