<svg width="24" height="24" viewBox="0 0 24 24" fill="none" xmlns="http://www.w3.org/2000/svg">
<path d="M12 0C5.4 0 0 5.325 0 12C0 15.6 1.575 18.825 4.125 21L4.35 21.225C6.375 22.95 9.075 24 12 24C14.925 24 17.625 22.95 19.65 21.225L19.875 21C22.425 18.75 24 15.6 24 12C24 5.325 18.6 0 12 0ZM12 21.75C9.9 21.75 8.025 21.075 6.375 19.95C6.75 19.275 7.05 18.975 7.425 18.6C7.95 18.225 8.55 18 9.225 18H14.625C15.3 18 15.9 18.225 16.425 18.6C16.8 18.9 17.1 19.2 17.475 19.95C15.975 21.075 14.1 21.75 12 21.75V21.75ZM19.275 18.45C18.9 17.775 18.45 17.325 17.85 16.875C16.95 16.2 15.825 15.825 14.7 15.825H9.3C8.175 15.825 7.05 16.2 6.15 16.875C5.55 17.325 5.1 17.775 4.725 18.45C3.15 16.725 2.25 14.475 2.25 12C2.25 6.6 6.6 2.25 12 2.25C17.4 2.25 21.75 6.6 21.75 12C21.75 14.475 20.85 16.725 19.275 18.45ZM12 4.275C9.075 4.275 6.75 6.6 6.75 9.525C6.75 12.45 9.075 14.775 12 14.775C14.925 14.775 17.25 12.45 17.25 9.525C17.25 6.6 14.925 4.275 12 4.275V4.275ZM12 12.525C10.35 12.525 9 11.175 9 9.525C9 7.875 10.35 6.525 12 6.525C13.65 6.525 15 7.875 15 9.525C15 11.175 13.65 12.525 12 12.525Z" fill="#262626"/>
</svg>
